<?xml version="1.0" standalone="no"?>
<!DOCTYPE svg PUBLIC "-//W3C//DTD SVG 20010904//EN"
 "http://www.w3.org/TR/2001/REC-SVG-20010904/DTD/svg10.dtd">
<svg version="1.0" xmlns="http://www.w3.org/2000/svg"
 width="260.000000pt" height="260.000000pt" viewBox="0 0 260.000000 260.000000"
 preserveAspectRatio="xMidYMid meet">
<metadata>
Created by potrace 1.11, written by Peter Selinger 2001-2013
</metadata>
<g transform="translate(0.000000,260.000000) scale(0.100000,-0.100000)"
fill="#000000" stroke="none">
<path d="M1135 2593 c-206 -28 -410 -107 -583 -226 -93 -63 -232 -199 -297
-287 l-47 -65 278 -3 c153 -1 285 0 292 3 10 4 13 34 11 132 l-2 128 56 3 c66
3 60 11 118 -153 17 -49 36 -96 42 -103 7 -9 33 -12 85 -10 l75 3 24 65 c13
36 35 96 50 133 l25 68 47 -3 46 -3 46 -123 c25 -67 50 -127 56 -133 5 -5 42
-9 83 -7 l73 3 18 50 c10 28 31 86 47 130 l29 80 69 0 69 0 3 -132 3 -133 265
0 c209 0 264 3 258 13 -72 122 -240 288 -384 378 -137 86 -321 156 -479 183
-87 15 -296 20 -376 9z"/>
<path d="M127 1868 c-34 -71 -67 -159 -67 -178 0 -7 131 -9 363 -8 l362 3 3
128 3 127 -314 0 -314 0 -36 -72z"/>
<path d="M1030 1938 c0 -2 11 -33 24 -70 17 -50 26 -64 35 -55 6 6 11 16 11
23 0 7 9 33 20 58 l19 46 -54 0 c-30 0 -55 -1 -55 -2z"/>
<path d="M1485 1923 c4 -10 13 -38 22 -63 8 -25 18 -48 22 -52 3 -4 18 24 33
62 l26 70 -55 0 c-48 0 -54 -2 -48 -17z"/>
<path d="M1850 1810 l0 -130 340 0 c323 0 340 1 340 18 0 21 -40 123 -76 194
l-24 48 -290 0 -290 0 0 -130z"/>
<path d="M921 1728 c-1 -42 2 -48 19 -48 24 0 24 3 0 55 l-19 40 0 -47z"/>
<path d="M1387 1764 c-14 -14 -8 -74 8 -81 25 -9 28 3 13 47 -7 23 -17 38 -21
34z"/>
<path d="M1227 1725 c-15 -32 -15 -36 -2 -42 20 -7 21 -6 29 40 9 47 -5 48
-27 2z"/>
<path d="M1691 1724 c-14 -39 -10 -50 14 -41 16 7 21 62 7 71 -5 3 -14 -11
-21 -30z"/>
<path d="M21 1544 c-7 -37 -15 -95 -18 -130 l-6 -64 397 0 396 0 0 130 0 130
-378 0 -379 0 -12 -66z"/>
<path d="M920 1481 l0 -131 165 0 165 0 0 130 0 130 -34 0 c-34 0 -34 -1 -75
-103 -23 -57 -41 -109 -41 -115 0 -22 -28 -12 -33 11 -3 12 -21 63 -40 112
-34 89 -35 90 -71 93 l-36 3 0 -130z"/>
<path d="M1388 1484 c-2 -69 -1 -128 1 -130 6 -5 316 -5 322 0 2 2 3 61 1 131
l-3 126 -32 -3 c-30 -3 -33 -8 -76 -115 -24 -62 -48 -113 -51 -113 -4 0 -27
52 -51 115 -43 113 -44 115 -76 115 l-32 0 -3 -126z"/>
<path d="M1850 1480 l0 -130 370 0 370 0 0 43 c0 23 -7 80 -15 127 -8 47 -15
86 -15 88 0 1 -160 2 -355 2 l-355 0 0 -130z"/>
<path d="M516 1282 l-519 -2 6 -83 c3 -45 11 -106 17 -135 l12 -52 395 2 396
3 4 40 c9 91 66 158 168 200 31 12 53 24 48 26 -4 2 -242 3 -527 1z"/>
<path d="M1154 1281 c-2 -3 33 -18 78 -36 l83 -31 50 22 c28 12 65 25 83 29
18 4 31 9 28 12 -6 6 -316 10 -322 4z"/>
<path d="M1585 1280 c-2 -3 17 -13 43 -23 91 -32 154 -107 170 -200 l8 -42
376 -3 c352 -2 377 -1 382 15 13 46 26 142 26 195 l0 58 -501 2 c-275 2 -502
1 -504 -2z"/>
<path d="M1044 1126 c-71 -31 -96 -110 -50 -159 13 -14 65 -46 114 -71 109
-55 159 -96 184 -154 l19 -43 26 51 c29 59 55 80 183 148 146 76 169 126 94
202 -31 31 -40 35 -88 35 -42 0 -71 -8 -135 -39 l-80 -40 -88 42 c-93 44 -128
50 -179 28z"/>
<path d="M50 942 c0 -17 41 -127 72 -194 l31 -68 498 0 c275 0 499 4 499 8 0
15 -44 48 -115 87 -102 55 -159 99 -180 139 l-20 36 -392 0 c-216 0 -393 -4
-393 -8z"/>
<path d="M1776 923 c-22 -43 -74 -87 -151 -128 -92 -50 -147 -87 -153 -102 -3
-10 98 -13 481 -13 l486 0 25 53 c32 68 76 186 76 203 0 12 -63 14 -375 14
l-374 0 -15 -27z"/>
<path d="M672 610 l-472 -5 34 -50 c76 -113 217 -251 338 -331 223 -149 455
-219 723 -218 168 0 270 16 418 66 241 80 468 245 620 449 32 42 57 79 57 82
0 4 -209 7 -465 7 -256 0 -465 -3 -465 -7 0 -17 41 -73 63 -88 54 -35 166 -11
230 48 35 33 39 24 35 -74 l-3 -74 -50 -25 c-68 -34 -187 -35 -257 -3 -62 28
-131 100 -147 152 -14 49 -26 52 -35 10 -14 -71 -105 -154 -196 -179 -50 -13
-141 -8 -186 12 -58 24 -64 35 -64 120 0 81 6 93 28 57 23 -36 100 -63 176
-60 47 2 132 99 99 113 -5 2 -221 1 -481 -2z"/>
</g>
</svg>
